<svg xmlns="http://www.w3.org/2000/svg" width="100%" height="100%" viewBox="0 0 24 24"><path fill="currentColor" d="M6 22q-.825 0-1.413-.588T4 20V10q0-.825.588-1.413T6 8h9V6q0-1.25-.875-2.125T12 3q-1.025 0-1.813.613T9.126 5.15q-.125.375-.388.613T8.126 6q-.5 0-.8-.338t-.2-.762Q7.5 3.225 8.85 2.112T12 1q2.075 0 3.538 1.463T17 6v2h1q.825 0 1.413.588T20 10v10q0 .825-.588 1.413T18 22H6Zm0-2h12V10H6v10Zm6-3q.825 0 1.413-.588T14 15q0-.825-.588-1.413T12 13q-.825 0-1.413.588T10 15q0 .825.588 1.413T12 17Zm-6-7v10v-10Z"/></svg>